<?xml version="1.0" standalone="no"?><!DOCTYPE svg PUBLIC "-//W3C//DTD SVG 1.1//EN" "http://www.w3.org/Graphics/SVG/1.1/DTD/svg11.dtd"><svg t="1539153312078" class="icon" style="" viewBox="0 0 1024 1024" version="1.1" xmlns="http://www.w3.org/2000/svg" p-id="3759" xmlns:xlink="http://www.w3.org/1999/xlink" width="200" height="200"><defs><style type="text/css"></style></defs><path d="M147.334 414.416c-9.354-13.526-14.901-27.875-10.203-36.059 4.698-8.184 19.02-8.51 34.376-5.384 4.235-20.351 13.595-40.704 25.29-42.357 17.934-2.569 34.53 39.94 37.895 63.138 1.818 13.209-1.65 22.5-8.205 28.549-0.898 3.28-2.43 6.577-4.247 9.786a44.958 44.958 0 0 1-4.517 6.566c-2.397 7.842-8.774 14.676-20.015 19.291-21.731 8.832-66.795 15.655-73.575-1.162-4.474-10.675 8.014-28.607 23.201-42.368z" fill="#7DA71D" p-id="3760"></path><path d="M150.812 476.234c-14.108-0.026-30.002-3.107-35.164-15.98-6.676-16.47 9.617-36.586 20.075-47.192-12.714-21.35-9.604-33.575-6.327-39.16 6.64-11.46 21.6-12.847 35.403-11.137 4.09-14.748 13.238-38.512 30.827-40.977 15.414-2.19 26.874 13.34 33.758 26.738 6.75 13.148 12.435 30.467 14.327 44.117 2.495 17.493-3.242 28.392-9.253 34.711-1.06 3.127-2.561 6.328-4.379 9.536-1.334 2.311-2.734 4.497-4.267 6.434-2.818 7.504-9.38 17-24.662 23.203-12.776 5.192-30.554 8.959-45.404 9.647-1.677 0.01-3.353 0.02-4.934 0.06z m4.46-95.99c-6.168-0.004-9.49 1.281-10.244 2.724-1.517 2.568-0.11 11.991 9.833 26.325l4.497 6.498-5.91 5.305c-16.302 14.674-22.638 28.214-20.954 32.284 0.908 2.16 7.597 5.25 22.351 4.533 14.755-0.718 30.408-4.716 39.46-8.328 7.985-3.205 12.962-7.853 14.811-13.561l0.527-1.722 1.166-1.42c1.32-1.584 2.48-3.321 3.6-5.279 1.547-2.664 2.653-5.254 3.442-7.836l0.76-2.486 1.887-1.724c4.822-4.486 6.61-11.364 5.366-20.633-1.348-9.614-5.757-25.288-12.538-38.34-6.75-13.149-12.772-17.395-15.073-17.053-3.719 0.536-12.684 11.39-17.655 35.175l-1.896 8.937-8.936-1.896c-5.972-0.99-10.73-1.503-14.494-1.503z" fill="#333333" p-id="3761"></path><path d="M375.243 587.827c188.382 72.339 490.859 130.621 510.222 80.283 19.364-50.338-244.548-209.451-432.834-281.76s-222.24-89.173-262.21 14.888-3.56 114.251 184.822 186.59z" fill="#F57033" p-id="3762"></path><path d="M213.257 348.092c16.37 60.008 41.536 108.693 75.364 145.805s77.322 73.729 130.389 109.82l322.563 70.908-437.45-322.071-90.866-4.462z" fill="#EC530C" p-id="3763"></path><path d="M799.23 719.867c-32.66-2.254-76.002-9.894-125.98-22.009-103.46-25.147-223.587-66.868-313.352-108.716-5.645-2.596-11.067-5.213-16.432-7.7-84.867-39.54-136.03-63.357-160.645-90.48-13.299-14.745-19.182-30.393-18.24-49.312 0.808-16.614 6.812-36.16 19.595-63.602 12.747-27.348 23.872-44.608 36.12-55.867 13.934-12.86 29.697-18.485 49.542-17.723 36.624 1.42 87.75 25.33 172.618 64.87 5.365 2.488 10.823 5.011 16.432 7.7 89.858 41.884 198.93 107.104 284.739 170.142 43.457 31.892 78.434 61.6 101.151 85.852 27.884 29.77 37.978 51.747 30.73 67.281-7.248 15.534-30.52 22.025-71.316 19.755a28.98 28.98 0 0 1-4.961-0.19zM271.45 322.86c-0.818-0.1-1.672-0.107-2.527-0.114-28.69-1.158-45.96 14.813-68.48 63.154-22.484 48.247-23.603 71.811-4.326 93.028 22.108 24.447 72.093 47.705 154.884 86.233 5.365 2.488 10.823 5.012 16.432 7.7 88.867 41.397 207.594 82.58 310.05 107.556 51.32 12.523 95.458 20.04 127.444 21.821 45.944 2.533 52.937-7.314 53.819-9.332 0.975-1.983 3.969-13.687-27.514-47.195-21.964-23.427-56.093-52.274-98.688-83.62-84.89-62.365-192.82-126.932-281.686-168.328-5.645-2.596-11.068-5.213-16.432-7.7-80.48-37.856-129.998-60.935-162.975-63.203z" fill="#333333" p-id="3764"></path><path d="M359.808 508.342c129.675 154.567 369.83 348.976 414.999 311.024 45.17-37.952-104.549-308.236-234.224-462.803S389.626 170.706 296.247 249.027s-66.114 104.747 63.561 259.315z" fill="#FF7E3A" p-id="3765"></path><path d="M305.08 230.396c-3.312 14.254-3.328 46.457-0.018 96.512 4.98 75.034 339.259 410.318 378.069 437.973 25.832 18.46 56.42 32.308 91.543 41.582l-21.338 15.75-133.17-70.622C466.032 619.558 387.728 552.118 385.407 549.107c-2.321-3.01-51.408-74.694-147.422-215.205l67.094-103.506z" fill="#F16B22" p-id="3766"></path><path d="M759.101 833.282c-13.697-0.005-31.676-5.502-54.002-16.615-30.141-14.966-68.8-40.38-111.7-73.468-84.609-65.29-176.867-153.1-240.547-229.037-3.98-4.772-7.892-9.419-11.642-13.912-60.254-71.751-96.674-115.093-106.495-151.035-11.182-41.064 11.998-70.367 55.773-107.177 43.87-36.78 76.703-54.558 115.15-36.32 33.71 15.952 70.033 59.265 130.258 131.113 3.75 4.492 7.663 9.14 11.642 13.911 63.776 75.966 134.157 181.975 183.822 276.736 25.179 47.958 43.452 90.457 52.928 122.738 11.584 39.409 10.438 64.364-3.599 76.072-5.513 4.693-12.7 6.993-21.588 6.994zM375.485 216.785c-19.454 0.013-41.01 12.036-73.385 39.26-45.14 37.856-57.71 60.156-49.946 88.463 8.777 32.172 44.216 74.273 102.843 144.168 3.846 4.522 7.662 9.14 11.641 13.911 62.93 74.975 154.024 161.802 237.822 226.321 41.965 32.385 79.564 57.16 108.646 71.49 27.61 13.669 48.505 18.175 55.817 12.045 7.312-6.13 6.523-27.494-2.22-57.042-9.194-31.149-26.994-72.458-51.547-119.387-48.942-93.704-118.534-198.531-181.559-273.535-3.979-4.772-7.891-9.419-11.641-13.911-58.627-69.895-93.941-112.063-124.067-126.397-7.49-3.545-14.78-5.355-22.404-5.386z" fill="#333333" p-id="3767"></path><path d="M251.24 215.817c-2.944-17.735-2.07-34.618 5.656-39.366 7.85-4.815 21.1 3.837 33.488 15.99 13.27-17.067 30.741-31.802 40.74-27.909 15.333 5.943 7.616 52.731-1.202 75.759-3.293 8.718-7.635 14.71-12.569 18.535-2.53 3.828-6.148 7.114-10.481 9.658-5.545 3.428-11.541 5.255-17.401 4.928-4.094 0.735-8.836 0.854-14.168 0.165-24.113-2.876-68.429-17.993-66.407-34.525 1.444-10.538 21.661-19.206 42.343-23.235z" fill="#8CCA01" p-id="3768"></path><path d="M282.217 283.115c-2.5-0.033-5.191-0.123-7.89-0.53-20.782-2.485-57.15-13.5-69.538-29.417-4.738-6.05-5.226-11.636-4.747-15.254 1.029-8.155 7.369-15.21 18.769-21.032 6.185-3.128 13.958-5.98 22.35-8.12-2.7-25.713 4.318-36.01 11.015-40.133 9.629-5.84 22.148-2.326 37.339 10.58 5.723-6.407 11.595-11.932 17.124-15.993 10.654-7.827 19.987-10.307 27.844-7.277 11.146 4.244 15.854 17.918 14.24 40.64-1.075 15.147-5.137 33.564-10.245 46.85-3.564 9.264-8.41 16.566-14.423 21.524-3.088 4.285-7.294 8.123-12.405 11.161-7.073 4.321-14.325 6.496-21.575 6.266-2.455 0.504-5.138 0.73-7.858 0.735z m-20.131-99.013c-0.221 0.038-0.317 0.008-0.441 0.075-1.462 1.017-4.68 10.176-1.395 30.212l1.42 8.695-8.658 1.64c-24.018 4.683-34.569 12.855-34.946 15.459-0.006 1.044 3.519 6.618 19.125 13.376 11.802 5.177 27.602 9.589 39.31 10.972 4.345 0.492 8.11 0.493 11.542-0.13l1.007-0.216 1.044 0.006c3.801 0.22 7.946-1.022 12.212-3.69 3.335-2.014 5.933-4.357 7.671-6.962l0.792-1.222 1.211-0.885c3.847-3.006 7.11-7.865 9.694-14.604 4.244-11.146 7.774-26.798 8.935-39.828 1.527-17.31-1.505-23.465-2.536-24.198-2.736-0.628-15.202 5.6-30.342 25.022l-6.22 8.032-7.232-7.126c-12.933-12.424-20.105-14.617-22.193-14.628zM421.19 284.821l27.892-21.798c4.126-3.235 10.186-2.532 13.391 1.69 3.235 4.126 2.533 10.185-1.689 13.39l-27.891 21.799c-4.126 3.235-10.186 2.532-13.392-1.69-3.235-4.126-2.437-10.156 1.69-13.39zM432.843 345.897l49.33-38.563c4.126-3.235 10.185-2.532 13.391 1.69 3.235 4.126 2.533 10.185-1.689 13.39l-49.3 38.467c-4.127 3.235-10.186 2.533-13.392-1.689-3.14-4.096-2.466-10.06 1.66-13.295zM516.06 353.144l6.454-5.033c4.126-3.235 10.185-2.533 13.39 1.689 3.236 4.126 2.534 10.185-1.688 13.391l-6.454 5.033c-4.126 3.235-10.185 2.533-13.39-1.689-3.236-4.126-2.438-10.156 1.688-13.391zM525.991 413.693l27.892-21.798c4.126-3.235 10.185-2.532 13.391 1.69 3.235 4.126 2.533 10.185-1.689 13.39l-27.892 21.798c-4.126 3.235-10.185 2.533-13.39-1.689-3.207-4.221-2.438-10.156 1.688-13.391zM631.514 530.97l13.59-10.59c4.126-3.235 10.185-2.533 13.39 1.689 3.236 4.126 2.534 10.185-1.688 13.391l-13.59 10.59c-4.126 3.235-10.186 2.532-13.391-1.69-3.206-4.221-2.437-10.156 1.689-13.39zM755.222 568.582l5.03-16.449c1.549-5.068 6.889-7.827 11.862-6.307 5.068 1.55 7.827 6.89 6.307 11.862l-5.029 16.449c-1.55 5.068-6.89 7.827-11.862 6.307-4.973-1.52-7.828-6.89-6.308-11.862zM717.223 537.932l2.397-7.841c1.55-5.069 6.89-7.828 11.863-6.308 5.068 1.55 7.828 6.89 6.307 11.863l-2.397 7.842c-1.55 5.068-6.89 7.827-11.863 6.307-5.068-1.55-7.857-6.794-6.307-11.863zM697.024 626.915l13.59-10.59c4.126-3.234 10.186-2.532 13.392 1.69 3.235 4.126 2.532 10.185-1.69 13.391l-13.59 10.59c-4.125 3.234-10.185 2.532-13.39-1.69-3.11-4.192-2.438-10.156 1.688-13.39zM637.218 608.421l42.194-33.006c4.126-3.235 10.185-2.532 13.391 1.69 3.235 4.126 2.533 10.185-1.689 13.39l-42.194 33.007c-4.126 3.235-10.185 2.532-13.39-1.69-3.111-4.192-2.438-10.156 1.688-13.39z" fill="#333333" p-id="3769"></path></svg>